<svg width="16" height="18" viewBox="0 0 16 18" fill="none" xmlns="http://www.w3.org/2000/svg">
<path fill-rule="evenodd" clip-rule="evenodd" d="M15.1334 3.10641C15.6222 3.59516 15.6222 4.38766 15.1334 4.87641L14.2322 5.77766L13.3478 4.89391L14.249 3.99266L11.7572 1.50078L10.8559 2.40203L9.97217 1.51828L10.8734 0.617031C11.3622 0.127656 12.1547 0.127656 12.6434 0.617031L15.1334 3.10641ZM2.76313 10.8286L4.92188 12.9867L2.14626 13.6036L2.76313 10.8286ZM5.97251 12.2698L3.48001 9.77734L9.08751 4.16984L11.58 6.66172L5.97251 12.2698ZM13.3481 6.66172L12.4637 5.77797L9.09125 2.40422L9.08812 2.40234L1.71687 9.77297L0.5 15.2498L5.97687 14.033L13.3481 6.66172ZM15.5 17.75H0.5V16.5H15.5V17.75Z" fill="#686868"/>
</svg>
