<svg width="20" height="20" viewBox="0 0 20 20" fill="none" xmlns="http://www.w3.org/2000/svg">
<path fill-rule="evenodd" clip-rule="evenodd" d="M5.13876 2.72464C6.57769 1.76318 8.26942 1.25 10 1.25C12.3206 1.25 14.5462 2.17187 16.1872 3.81282C17.8281 5.45376 18.75 7.67936 18.75 10C18.75 11.7306 18.2368 13.4223 17.2754 14.8612C16.3139 16.3002 14.9473 17.4217 13.3485 18.0839C11.7496 18.7462 9.9903 18.9195 8.29296 18.5819C6.59563 18.2442 5.03653 17.4109 3.81282 16.1872C2.58911 14.9635 1.75575 13.4044 1.41813 11.707C1.08051 10.0097 1.25379 8.25037 1.91606 6.65152C2.57832 5.05267 3.69983 3.6861 5.13876 2.72464ZM5.83323 16.236C7.0666 17.0601 8.51664 17.5 10 17.5C11.9891 17.5 13.8968 16.7098 15.3033 15.3033C16.7098 13.8968 17.5 11.9891 17.5 10C17.5 8.51664 17.0601 7.06659 16.236 5.83322C15.4119 4.59985 14.2406 3.63856 12.8701 3.0709C11.4997 2.50325 9.99169 2.35472 8.53683 2.64411C7.08197 2.9335 5.7456 3.64781 4.6967 4.6967C3.64781 5.74559 2.9335 7.08197 2.64411 8.53682C2.35473 9.99168 2.50325 11.4997 3.07091 12.8701C3.63856 14.2406 4.59986 15.4119 5.83323 16.236ZM9.61258 7.52239C9.7353 7.57299 9.86726 7.5973 9.99995 7.59377C10.1345 7.59714 10.2683 7.5728 10.393 7.52226C10.5177 7.47173 10.6307 7.39608 10.725 7.30002C10.8158 7.20903 10.8875 7.10076 10.9358 6.98161C10.9841 6.86245 11.008 6.73483 11.0062 6.60627C11.0073 6.47781 10.9831 6.35038 10.9348 6.23133C10.8865 6.11227 10.8152 6.00393 10.725 5.91252C10.6295 5.81847 10.5162 5.74456 10.3916 5.69518C10.2671 5.64579 10.1339 5.62193 9.99995 5.62502C9.86959 5.62164 9.73988 5.64462 9.61861 5.69258C9.49734 5.74054 9.387 5.81249 9.29421 5.90411C9.20141 5.99574 9.12807 6.10516 9.07858 6.22581C9.02909 6.34647 9.00448 6.47587 9.0062 6.60627C9.00437 6.73483 9.02831 6.86245 9.07662 6.98161C9.12492 7.10076 9.19661 7.20903 9.28745 7.30002C9.3791 7.39604 9.48986 7.4718 9.61258 7.52239ZM9.1562 8.26877V14.375H10.8187V8.26877H9.1562Z" fill="#B7B7B7"/>
</svg>
