<svg width="37" height="36" viewBox="0 0 37 36" fill="none" xmlns="http://www.w3.org/2000/svg">
<rect x="1" y="0.5" width="35" height="35" rx="3.5" fill="white"/>
<path fill-rule="evenodd" clip-rule="evenodd" d="M25.375 18C25.375 21.7906 22.2906 24.875 18.5 24.875C14.7094 24.875 11.625 21.7906 11.625 18C11.625 14.2094 14.7094 11.125 18.5 11.125C20.4325 11.125 22.2344 11.9275 23.5344 13.3313L21.9913 14.875H26V10.8662L24.4187 12.4475C22.885 10.8094 20.7681 9.875 18.5 9.875C14.02 9.875 10.375 13.52 10.375 18C10.375 22.48 14.02 26.125 18.5 26.125C22.98 26.125 26.625 22.48 26.625 18H25.375Z" fill="#686868"/>
<rect x="1" y="0.5" width="35" height="35" rx="3.5" stroke="#F2F2F2"/>
</svg>
