<svg width="18" height="18" viewBox="0 0 18 18" fill="none" xmlns="http://www.w3.org/2000/svg">
<path fill-rule="evenodd" clip-rule="evenodd" d="M6.76216 0.25V1.46955H11.2377V0.25H6.76216ZM1.46955 6.76265V11.2382H0.25V6.76265H1.46955ZM17.7499 6.76265V11.2382H16.5303V6.76265H17.7499ZM6.76204 16.5305H11.2376V17.75H6.76204V16.5305ZM1.46961 1.65254C1.46961 1.55151 1.55151 1.46961 1.65254 1.46961H2.55586V0.25006H1.65254C0.877971 0.25006 0.25006 0.87797 0.25006 1.65254V2.55538H1.46961V1.65254ZM16.3475 1.46955C16.4486 1.46955 16.5305 1.55145 16.5305 1.65248V2.55533H17.75V1.65248C17.75 0.877911 17.1221 0.25 16.3475 0.25H15.4442V1.46955H16.3475ZM16.5303 16.3475C16.5303 16.4486 16.4484 16.5305 16.3474 16.5305H15.4441V17.75H16.3474C17.122 17.75 17.7499 17.1221 17.7499 16.3475V15.4447H16.5303V16.3475ZM1.65248 16.5305C1.55145 16.5305 1.46955 16.4486 1.46955 16.3475V15.4447H0.25V16.3475C0.25 17.1221 0.877912 17.75 1.65248 17.75H2.5558V16.5305H1.65248ZM4.73182 13.2687H13.2686V4.73189H4.73182V13.2687ZM12.0491 5.95144V12.0492H5.95136V5.95144H12.0491Z" fill="#686868"/>
</svg>
